<svg width="100" height="26" viewBox="0 0 100 26" fill="none" xmlns="http://www.w3.org/2000/svg">
    <path d="M10.7727 11.551C11.0532 9.99494 10.2776 8.60217 8.64144 8.73401C6.4221 8.91311 4.87777 13.5324 9.59925 15.0696C13.47 16.3299 16.2881 13.4123 20.7477 8.91057C30.7119 -1.14803 42.7438 -2.12361 50.0813 8.03049C53.1055 2.46545 65.0266 -6.81131 83.2289 12.4313C89.9156 19.5 95.8903 12.8524 92.617 9.20412C91.128 7.54455 88.2176 9.86213 89.6832 11.551H89.3897C82.558 5.4924 96.8282 -0.168923 99.6559 10.0842C102.578 25.5172 86.2979 28.026 73.2561 22.4039C48.0496 9.78909 47.7807 13.178 23.386 23.5776C15.8993 26.6465 6.7303 24.893 3.02913 21.3444C-1.36677 17.1299 -1.09489 7.11467 4.61175 5.0967C10.436 2.76037 15.3633 7.76213 10.7727 11.551Z" fill="#FFF4E6"/>
</svg>